<svg xmlns="http://www.w3.org/2000/svg" width="306.919" height="260.126"><path d="M217.286 259.467H24.133A23.88 23.88 0 0 1 .25 235.584v-88.492a9.46 9.46 0 0 1 2.953-6.865l102.352-97.02c8.498-8.055 21.81-8.055 30.31 0l97.587 92.5a24.73 24.73 0 0 1 7.717 17.949v81.928c0 6.334-2.516 12.41-6.995 16.888s-10.554 6.995-16.888 6.995z" fill="#fe3e57"/><path d="M.25 148.544h238.9v96.5c0 7.964-6.457 14.42-14.42 14.42H14.672c-7.964 0-14.42-6.457-14.42-14.42v-96.5z" opacity=".2"/><rect width="177.677" height="177.677" rx="26.181" fill="#fff" x="31.62" y="72.505"/><path d="M209.297 152.535v97.647H31.62v-97.647l88.84 42.94z" opacity=".06"/><path d="M120.46 201L6.628 145.976A4.62 4.62 0 0 0 0 150.134V244.8c0 7.964 6.457 14.42 14.42 14.42h212.075a14.42 14.42 0 0 0 14.422-14.421v-93.043c0-1.94-.998-3.743-2.64-4.774s-3.7-1.144-5.447-.3z" fill="#fe3e57"/><path d="M46.93 88.817h49.7v7.027h-49.7zm-4.017 25.597h147.562v4.015H42.913zm0 13.552h147.562v4.015H42.913zm0 13.552h147.562v4.015H42.913z" fill="#b4b1b1"/><path d="M240.545 35.503c-.3 2.688-2.352 4.852-3.11 7.448-1.143 3.907.834 8.1 3.538 11.14 4.407 4.906 10.595 7.844 17.182 8.158a7.33 7.33 0 0 0 2.841-.31 6.08 6.08 0 0 0 2.161-1.477c1.972-2.138 3.22-4.843 3.565-7.73.336-2.87.37-5.764.1-8.64.001-.596-.107-1.186-.32-1.743-.278-.53-.66-1-1.122-1.38-1.466-1.346-3.08-2.52-4.813-3.5-.783-.35-1.474-.88-2.017-1.543a4.99 4.99 0 0 1-.623-1.848l-.532-2.7c-.094-.782-.36-1.533-.78-2.2-.94-1.267-2.736-1.44-4.312-1.5l-5.774-.226c-1.8-.07-4.163-.586-5.916-.233-1.637.33-1.094 1.838-.8 3.212a23.22 23.22 0 0 1 .733 5.081z" fill="#b87b50"/><path d="M277.28 156.47l-2.454 26.907c-.64 7.057-1.293 14.143-2.55 21.1-.434 2.4-.942 4.79-1.545 7.156-1.678 6.574-4.11 13-4.9 19.738-.025.194-.045.393-.066.59a17.16 17.16 0 0 1-.839 4.38c-.392 1.03-1 1.967-1.42 2.983-.727 2.083-1.086 4.277-1.062 6.483a27.95 27.95 0 0 0-9.623-3.289c-1.632-.244-3.45-.417-4.562-1.636-1.23-1.347-1.095-3.41-.888-5.22q.973-8.43 1.942-16.85a43.92 43.92 0 0 1 1.227-7.156c.223-.78.492-1.55.764-2.318.376-1.058.756-2.116 1.04-3.2.41-1.756.698-3.538.86-5.334l2.17-16.94.037-.3a173.24 173.24 0 0 0 1.624-25.787 100.57 100.57 0 0 0-.169-3.834c-.116-1.855-.285-2.84 1.252-4 1.837-1.226 3.808-2.238 5.875-3.016 1.045-.454 12.557-4.54 12.825-3.644a22.43 22.43 0 0 1 .843 5.875 65.37 65.37 0 0 1-.38 7.301z" fill="#4d7381"/><path d="M272.28 204.486l-1.545 7.156c-1.677 6.574-4.11 13-4.9 19.738-.025.194-.045.392-.066.59-5.132-7.33-9.454-15.214-14.46-22.622.376-1.058.756-2.115 1.04-3.2.41-1.756.698-3.538.86-5.334l2.17-16.94.037-.3c.294 1.2.714 2.364 1.252 3.475 3.363 6.834 11.354 10.288 15.263 16.83q.18.304.35.608z" opacity=".1"/><path d="M230.635 144.392a127.17 127.17 0 0 0 1.923 16.327l1.807 11.17c.99 6.113 2.018 12.35 4.91 17.826 2.164 4.1 5.282 7.59 8.1 11.265 6.934 9.034 12.143 19.267 18.718 28.565 1.91 2.7 4.643 5.625 7.9 5.06 2.14-.37 3.7-2.153 5.378-3.527 1.984-1.62 4.375-2.806 5.936-4.836s1.867-5.406-.248-6.85a11.16 11.16 0 0 0-2.42-.99c-3.278-1.247-5.4-4.448-6.75-7.685s-2.168-6.718-3.967-9.73c-3.908-6.54-11.9-9.995-15.265-16.83-1.884-3.83-2.064-8.242-2.208-12.507l-.367-10.872a7.94 7.94 0 0 1 .412-3.513c1.287-2.894 5.172-3.164 8.318-3.53 3.572-.417 7.033-1.508 10.2-3.214 1.88-.875 3.46-2.28 4.552-4.043a13.03 13.03 0 0 0 1.11-5.478l1.09-19.7a12.34 12.34 0 0 0-.418-5.037c-1.5-4-6.54-5.294-10.8-5.1-7.925.354-15.24 3.763-22.714 6.066-1.85.584-3.73 1.074-5.63 1.47-1.677.337-3.707.2-5.306.736-2.844.96-2.772 7.18-3.176 9.76a82.16 82.16 0 0 0-1.084 15.2z" fill="#4d7381"/><path d="M272.925 235.43a5.04 5.04 0 0 1 1.109 2.713 93.61 93.61 0 0 1 1.57 16.41 2.68 2.68 0 0 0 .3 1.487 1.87 1.87 0 0 0 .772.62c2.02.963 4.364-.38 6.047-1.853 3.12-2.733 5.76-6.4 5.937-10.546a24.49 24.49 0 0 1 .112-3.2 13.35 13.35 0 0 1 1.988-4.285 36.19 36.19 0 0 0 3.285-7.364c.307-.965.5-2.18-.245-2.854a2.75 2.75 0 0 0-.9-.467l-9.124-3.388c-.8-.294-2.758 4.76-3.07 5.313-.554 1.266-1.698 2.176-3.056 2.43-1.564.318-3.426-.138-4.886.642-2.47 1.32-1.236 2.932.162 4.342zm-14.08 3.12a2.8 2.8 0 0 0-.694-.881 3.14 3.14 0 0 0-1.4-.476c-1.737-.295-3.8-.5-4.995.8-1.124 1.2-.93 3.182-1.87 4.54-.3.43-.7.784-.958 1.24a4.67 4.67 0 0 0-.42 2.223l.048 6.316a8.84 8.84 0 0 0 1.52 4.985c1.767 2.214 4.955 2.532 7.784 2.676l2.3.116c.63.077 1.27.018 1.878-.172a3.09 3.09 0 0 0 1.62-1.782c1.193-2.964-.7-6.158-1.86-9.135-1.34-3.418-1.1-7.216-2.944-10.45z" fill="#3d3130"/><path d="M239.882 20.36c-.028-.3.016-.603.13-.883.336-.593 1.212-.432 1.873-.265 2.66.67 5.46.064 8.2.22s5.82 1.525 6.37 4.21c1.987-1.408 3.45-.2 4.8-2.234a18.17 18.17 0 0 0 1.568-6.761c-.15-1.966-1.8-3.437-3.327-4.684l-4.554-3.718a6.86 6.86 0 0 0-2.039-1.3 10.16 10.16 0 0 0-3.31-.187c-3.315 0-6.85-1.507-9.8.01-1.2.716-2.227 1.66-3.052 2.776l-4.065 4.81a2.57 2.57 0 0 0-.65 1.1c-.1 1.155-.1 2.317 0 3.472.192 1.075.294 3.967.65 5 .938 2.24 2.32 4.264 4.065 5.952.474.366.823-4.868 1.387-4.883" fill="#1e2336"/><ellipse cx="247.278" cy="21.026" rx="11.515" ry="13.515" fill="#d29a74"/><path d="M249.826 50.012a6.3 6.3 0 0 0-6.138-4.224 1.87 1.87 0 0 1-1.132-.143 1.56 1.56 0 0 1-.465-.582 22.74 22.74 0 0 1-1.9-4.486c-.208-.69-.492-1.5-1.188-1.68-.588-.077-1.17.177-1.515.66a13.35 13.35 0 0 1-1.083 1.361c-1.637 1.464-4.54.13-6.276 1.472-.284.22-.518.5-.816.7-.298.18-.62.318-.956.4-3.355 1.095-6.644 2.383-9.85 3.858 1.156 6.96 2.34 14.04 5.05 20.556 1.29 3.1 2.75 6.136 3.782 9.33 2.287 7.08 2.39 14.653 2.414 22.092.018 5.09-.008 10.292-1.655 15.11a14.26 14.26 0 0 0-.93 3.319 3.44 3.44 0 0 0 1.165 3.094c.54.353 1.158.57 1.8.63 2.854.42 5.732-.34 8.542-.992 7.533-1.745 15.215-2.743 22.883-3.738l12.85-1.668a7.46 7.46 0 0 0 2.658-.687c2.35-1.287 2.574-4.824 1.114-7.072a38.42 38.42 0 0 1-2.276-3.1c-.588-1.143-.638-2.74.374-3.532 2.06-1.6 1.445-4.6 1.543-7.21q.412-10.956-.11-21.92a43.65 43.65 0 0 1-.073-4.546c.228-2.568.703-5.11 1.417-7.586l3.9-15.373a8.01 8.01 0 0 0-4.823-3.1c-1.85-.464-3.777-.6-5.6-1.165-3.732-1.157-7.055-4.092-10.953-3.818a1.99 1.99 0 0 0-.849.207c-.88.5-.74 1.765-.8 2.774-.124 2.232-1.766 4.1-3.58 5.405s-3.883 2.262-5.548 3.753c-.592.452-.95 1.146-.973 1.89z" fill="#dfca44"/><g fill="#eba575"><path d="M198.255 64.592a15.44 15.44 0 0 1-2.738 1.41 9 9 0 0 0-2.622 1.273 4.11 4.11 0 0 0-.912 1.127 5.01 5.01 0 0 0 4.62 7.465 10.06 10.06 0 0 0 3.417-1.019l9.18-3.978c1.554-.673 3.232-1.462 3.966-2.988a.7.7 0 0 0 .089-.474c-.073-.174-.207-.316-.377-.4a20.51 20.51 0 0 1-5.345-5.04c-.377-.5-.838-1.72-1.37-2.025-1.942-1.117-6.352 3.643-7.908 4.65zm98.14-3.264l3.384 3.866 2.116 2.543a29.68 29.68 0 0 1 3.876 7.3 12.75 12.75 0 0 1 1.089 6.037c-.17 1.05-.455 2.08-.847 3.07a38.21 38.21 0 0 1-2.3 5.539 31.54 31.54 0 0 1-2.588 3.878 90.42 90.42 0 0 1-8.58 9.814c-1.157 1.145-1.642 3-2.146 4.546-.93 2.856-3.14 5.08-5.277 7.2-.687.725-1.446 1.38-2.266 1.95a7.38 7.38 0 0 1-4.124 1.174 4.51 4.51 0 0 1-1.857-.384 4.8 4.8 0 0 1-2.359-4 8.5 8.5 0 0 1 .712-4.277c1.942-4.3 6.93-6.167 10.455-9.306 1.992-1.926 3.74-4.1 5.207-6.44 1.06-1.428 1.943-2.978 2.633-4.616.787-2.1.48-4.587 1.17-6.723.3-.9.808-1.718 1.12-2.613a3.05 3.05 0 0 0-.156-2.733 3.97 3.97 0 0 0-1.532-1.122c-2.252-1.143-4.774-2.614-5.205-5.1-.173-1.38.188-2.776 1.008-3.9a16.24 16.24 0 0 1 2.84-2.976"/><path d="M196.083 69.99a6.29 6.29 0 0 0-2.551-3.039 4.7 4.7 0 0 0-3.708-.016 13.94 13.94 0 0 0-3.254 1.968l-2.917 2.15c-.662.434-1.247.975-1.732 1.6a6.75 6.75 0 0 0-.9 2.475 17.69 17.69 0 0 0-.459 6.122c.463 3.3 2.446 6.162 4.63 8.666 1.364 1.565 3.048 3.144 5.123 3.21a2.35 2.35 0 0 0 2.264-1.139 2.84 2.84 0 0 0 .2-1.015c.224-3.67-1.09-7.253-2.62-10.6-.488-.875-.777-1.847-.845-2.847a.78.78 0 0 1 .125-.477c.133-.138.3-.224.5-.243 2.095-.414 5.7 1.213 7.173-1.113.953-1.506-.352-4.334-1.03-5.702z"/></g><path d="M246.612 15.966c2.423-1.2 4.647-3.023 7.13-2.94 3.2.1 6.246 2.576 7.082 1.327.847-1.086 1.31-2.423 1.318-3.8-.15-1.966-1.8-3.437-3.327-4.684l-4.554-3.718a6.86 6.86 0 0 0-2.039-1.3c-1.086-.243-2.204-.306-3.3-.187-3.315 0-6.85-1.507-9.8.01-1.2.716-2.227 1.66-3.052 2.776l-4.065 4.81a2.57 2.57 0 0 0-.65 1.1c-.01.598.087 1.193.29 1.756.192 1.075-.27 2.222.085 3.254.56 1.248 1.42 2.34 2.5 3.18 4.192.848 8.546.29 12.4-1.584z" fill="#1e2336"/><path d="M211.556 51.932a5.29 5.29 0 0 0-1.362 1.268c-.477.72-.574 1.632-.984 2.394-.877 1.63-2.93 2.2-4.2 3.547-.202.185-.34.427-.4.694a1.55 1.55 0 0 0 .344 1l6.172 9.7c2.055.18 4.026-1.107 6.082-.936a6.11 6.11 0 0 0 2.289.1 6.62 6.62 0 0 0 1.47-.9c1.227-.775 2.86-.866 3.9-1.9a5.32 5.32 0 0 0 1.1-3.91c.017-1.2-.107-2.418-.367-3.6-.9-3.724-3.757-6.582-5.543-9.88-.87-1.606-1.342-2.546-3.182-1.444s-3.557 2.6-5.298 3.858zm74.956-4.906a14.44 14.44 0 0 1 3.1 2.72c.94 1.212 1.473 2.7 2.376 3.936.965 1.13 1.986 2.212 3.06 3.24a25.02 25.02 0 0 1 3.528 5.747 85.86 85.86 0 0 1-7.979 9.019c-.32.377-.74.655-1.212.8-.653.07-1.296-.194-1.714-.7-.444-.466-.76-1.04-1.184-1.525a6.1 6.1 0 0 0-3.773-1.825c-1.42-.137-2.85-.157-4.275-.06a1.69 1.69 0 0 1-.913-.154c-.212-.145-.384-.342-.5-.57-1.67-2.843-1.133-6.414-.544-9.658l1.353-7.446c.196-1.422.575-2.813 1.126-4.138.512-1.1 1.658-2.952 3.067-2.624s3.3 2.38 4.484 3.238z" fill="#dfca44"/><ellipse cx="38.898" cy="75.302" rx="20.578" ry="20.616" fill="#fff"/><path d="M38.9 51.173c-9.947 0-18.915 5.992-22.722 15.182s-1.703 19.768 5.33 26.802 17.612 9.138 26.802 5.33 15.182-12.775 15.182-22.722c0-13.583-11.01-24.594-24.594-24.594zM33.85 88.88l-12.6-12.6 3.535-3.535 9.08 9.08 19.167-19.167 3.535 3.535-22.714 22.7z" fill="#1fc006"/></svg>